<?xml version="1.0" encoding="utf-8"?>
<!-- Generator: Adobe Illustrator 23.0.3, SVG Export Plug-In . SVG Version: 6.00 Build 0)  -->
<svg version="1.1" id="Layer_1" xmlns="http://www.w3.org/2000/svg" xmlns:xlink="http://www.w3.org/1999/xlink" x="0px" y="0px"
	 viewBox="0 0 273.9 58.6" style="enable-background:new 0 0 273.9 58.6;" xml:space="preserve">
<style type="text/css">
	.st0{fill:none;}
	.st1{fill:none;stroke:#000000;stroke-width:1.5574;stroke-miterlimit:10;}
</style>
<g>
	<g>
		<path class="st0" d="M243.7,16.4v-5.7c-1.2,0.4-2.1,1.5-2.1,2.9S242.5,16,243.7,16.4z"/>
		<path class="st0" d="M245.4,16.4c0.2-0.1,0.4-0.1,0.5-0.2l0.4,0.7l0,0l-0.4-0.7c1-0.5,1.6-1.5,1.6-2.7c0-1.4-0.9-2.5-2.1-2.9V16.4
			z"/>
		<path class="st0" d="M245.4,24.9V41c4.4-0.3,8.3-2.5,10.8-5.9l-6.1-10.1H245.4z"/>
		<path class="st0" d="M245.4,23.2h3.7L246,18c-0.2,0.1-0.4,0.1-0.6,0.2V23.2z"/>
		<path class="st0" d="M243.7,24.9h-5l-5.9,9.9c2.5,3.6,6.5,5.9,10.9,6.1V24.9z"/>
		<path class="st0" d="M243.7,23.2v-5c-0.3-0.1-0.5-0.1-0.8-0.2l-3.1,5.2H243.7z"/>
		<path d="M259.9,31.6l-1.7-0.5c-0.3,0.8-0.6,1.6-1,2.3l-5.1-8.5h1v-1.7h-2l-3.6-6c1.1-0.9,1.8-2.2,1.8-3.7c0-2.3-1.7-4.3-3.9-4.7
			V6.7h-1.7v2.1c-2.2,0.4-3.9,2.3-3.9,4.7c0,1.4,0.6,2.7,1.6,3.5l-3.7,6.1H236v1.7h0.7l-4.9,8.2c-0.4-0.7-0.7-1.4-0.9-2.2l-1.7,0.5
			c0.4,1.3,1,2.6,1.8,3.9c2.8,4.4,7.5,7.1,12.7,7.4v4.7h-4.4v1.7h4.4V52h1.7v-2.8h4.4v-1.7h-4.4v-4.7
			C252.1,42.4,257.8,38,259.9,31.6z M246,18l3.1,5.2h-3.7v-5C245.6,18.1,245.8,18.1,246,18z M245.4,41V24.9h4.7l6.1,10.1
			C253.7,38.5,249.8,40.7,245.4,41z M247.6,13.5c0,1.1-0.6,2.1-1.6,2.7l0.4,0.7l0,0l-0.4-0.7c-0.2,0.1-0.4,0.2-0.5,0.2v-5.7
			C246.7,11,247.6,12.1,247.6,13.5z M243.7,10.6v5.7c-1.2-0.4-2.1-1.5-2.1-2.9S242.5,11,243.7,10.6z M243.7,18.2v5h-3.9l3.1-5.2
			C243.2,18,243.4,18.1,243.7,18.2z M232.8,34.9l5.9-9.9h5V41C239.3,40.7,235.3,38.5,232.8,34.9z"/>
	</g>
	<circle class="st1" cx="244.6" cy="29.3" r="28.5"/>
</g>
<g>
	<path d="M2.4,48.6C0.8,47,0,44.4,0,40.9c0-0.4,0.1-0.6,0.4-0.9s0.5-0.4,0.9-0.4c0.4,0,0.6,0.1,0.9,0.4c0.2,0.2,0.4,0.5,0.4,0.9
		c0,2.9,0.6,4.9,1.7,6c1.2,1.1,3.2,1.7,6,1.7h8.5c2.9,0,4.9-0.6,6-1.7c1.2-1.1,1.7-3.1,1.7-6s-0.6-4.9-1.7-6c-1.2-1.1-3.2-1.7-6-1.7
		h-8.3c-3.4,0-5.8-0.8-7.4-2.3c-1.5-1.5-2.3-4-2.3-7.3c0-3.4,0.8-5.8,2.3-7.3c1.5-1.5,4-2.3,7.3-2.3H19c3.3,0,5.8,0.8,7.3,2.3
		c1.5,1.5,2.3,4,2.3,7.3c0,0.4-0.1,0.6-0.4,0.9s-0.5,0.4-0.9,0.4c-0.4,0-0.6-0.1-0.9-0.4c-0.2-0.2-0.4-0.5-0.4-0.9
		c0-2.6-0.5-4.5-1.6-5.5c-1.1-1.1-2.9-1.6-5.6-1.6h-8.6c-2.6,0-4.5,0.5-5.6,1.6c-1.1,1.1-1.6,2.9-1.6,5.6c0,2.7,0.5,4.5,1.6,5.6
		c1.1,1.1,2.9,1.6,5.6,1.6h8.3c3.6,0,6.2,0.8,7.8,2.4c1.6,1.6,2.4,4.2,2.4,7.7c0,3.5-0.8,6.1-2.4,7.7c-1.6,1.6-4.2,2.4-7.8,2.4h-8.5
		C6.7,51.1,4.1,50.3,2.4,48.6z"/>
	<path d="M40.8,38.5v2.4c0,2.9,0.6,4.9,1.8,6c1.2,1.2,3.2,1.7,6.1,1.7h4.8c2.7,0,4.6-0.4,5.8-1.1c1.2-0.7,1.8-2,2-3.7
		c0.1-0.8,0.5-1.2,1.3-1.2c0.4,0,0.7,0.1,0.9,0.4c0.2,0.2,0.3,0.5,0.3,0.9c-0.2,2.5-1.1,4.3-2.8,5.5c-1.7,1.2-4.1,1.7-7.4,1.7h-4.8
		c-3.6,0-6.2-0.8-7.8-2.4s-2.5-4.2-2.5-7.8v-6.6c0-3.6,0.8-6.2,2.5-7.9c1.6-1.6,4.3-2.4,7.8-2.4h4.8c3.6,0,6.2,0.8,7.8,2.4
		c1.6,1.6,2.4,4.2,2.4,7.8v2.9c0,0.8-0.4,1.2-1.2,1.2H40.8z M40.8,36h20.5v-1.7c0-2.9-0.6-4.9-1.7-6.1c-1.2-1.2-3.2-1.7-6.1-1.7
		h-4.8c-2.9,0-4.9,0.5-6.1,1.7c-1.2,1.2-1.8,3.2-1.8,6.1V36z"/>
	<path d="M92.4,25.3c0,0.3-0.1,0.5-0.4,0.8l-9.6,11.6l8.9,11.4c0.2,0.3,0.4,0.5,0.4,0.8c0,0.4-0.2,0.6-0.5,0.9
		c-0.3,0.2-0.5,0.4-0.8,0.4c-0.3,0-0.6-0.2-0.9-0.5l-8.7-11.1l-9.1,11.1c-0.3,0.4-0.6,0.5-0.9,0.5c-0.3,0-0.5-0.1-0.8-0.4
		c-0.4-0.3-0.5-0.6-0.5-0.9c0-0.3,0.1-0.5,0.4-0.8l9.5-11.5l-8.9-11.4c-0.2-0.3-0.4-0.6-0.4-0.8c0-0.4,0.2-0.7,0.5-0.9
		c0.3-0.2,0.6-0.3,0.8-0.3c0.4,0,0.7,0.2,0.9,0.5l8.8,11.2l9.2-11.2c0.3-0.4,0.6-0.5,0.9-0.5c0.3,0,0.6,0.1,0.8,0.4
		C92.2,24.7,92.4,25,92.4,25.3z"/>
	<path d="M112.5,49.9c0,0.8-0.4,1.2-1.3,1.2c-3.5,0-6.1-0.8-7.7-2.4c-1.6-1.6-2.4-4.2-2.4-7.6V26.5h-3.7c-0.8,0-1.2-0.4-1.2-1.2
		c0-0.8,0.4-1.2,1.2-1.2h3.7v-7c0-0.8,0.4-1.2,1.2-1.2s1.2,0.4,1.2,1.2v7h7.6c0.8,0,1.2,0.4,1.2,1.2c0,0.8-0.4,1.2-1.2,1.2h-7.6
		v14.6c0,2.8,0.6,4.8,1.7,5.9s3.1,1.7,6,1.7C112.1,48.7,112.5,49.1,112.5,49.9z"/>
	<path d="M139.5,26.5c1.6,1.6,2.4,4.2,2.4,7.8v15.6c0,0.8-0.4,1.2-1.2,1.2s-1.2-0.4-1.2-1.2v-3.5c-0.9,1.5-2.2,2.7-4,3.5
		c-1.7,0.8-3.9,1.2-6.4,1.2h-3.3c-3,0-5.1-0.7-6.5-2c-1.4-1.4-2-3.5-2-6.5c0-3,0.7-5.2,2.1-6.5c1.4-1.4,3.5-2.1,6.5-2.1h13.7
		c0-2.7-0.6-4.7-1.8-5.8c-1.2-1.1-3.2-1.7-6-1.7h-3.4c-2.7,0-4.6,0.3-5.8,0.9c-1.2,0.6-1.9,1.7-2.2,3.1c-0.1,0.8-0.5,1.2-1.2,1.2
		c-0.4,0-0.8-0.1-1-0.4c-0.2-0.2-0.3-0.5-0.3-0.9c0.2-2.2,1.1-3.8,2.8-4.9c1.7-1,4.3-1.6,7.6-1.6h3.4
		C135.3,24,137.9,24.8,139.5,26.5z M139.5,41.8v-5.4h-13.7c-2.3,0-3.9,0.5-4.7,1.4c-0.9,0.9-1.3,2.5-1.3,4.8c0,2.3,0.4,3.9,1.3,4.7
		s2.5,1.3,4.7,1.3h3.3c6.4,0,9.8-2.2,10.3-6.5L139.5,41.8z"/>
	<path d="M174.4,26.5c1.6,1.6,2.4,4.2,2.4,7.8v15.6c0,0.8-0.4,1.2-1.2,1.2s-1.2-0.4-1.2-1.2V34.3c0-2.9-0.6-4.9-1.7-6.1
		c-1.2-1.2-3.2-1.7-6.1-1.7h-1.6c-6.4,0-9.8,2.1-10.3,6.4l-0.1,0.4v16.6c0,0.8-0.4,1.2-1.2,1.2s-1.2-0.4-1.2-1.2V25.3
		c0-0.8,0.4-1.2,1.2-1.2s1.2,0.4,1.2,1.2v3.4c1.8-3.1,5.3-4.6,10.4-4.6h1.6C170.1,24,172.7,24.8,174.4,26.5z"/>
	<path d="M199.1,49.9c0,0.8-0.4,1.2-1.3,1.2c-3.5,0-6.1-0.8-7.7-2.4c-1.6-1.6-2.4-4.2-2.4-7.6V26.5H184c-0.8,0-1.2-0.4-1.2-1.2
		c0-0.8,0.4-1.2,1.2-1.2h3.7v-7c0-0.8,0.4-1.2,1.2-1.2s1.2,0.4,1.2,1.2v7h7.6c0.8,0,1.2,0.4,1.2,1.2c0,0.8-0.4,1.2-1.2,1.2h-7.6
		v14.6c0,2.8,0.6,4.8,1.7,5.9s3.1,1.7,6,1.7C198.7,48.7,199.1,49.1,199.1,49.9z"/>
</g>
</svg>
